<?xml version="1.0" encoding="UTF-8" standalone="no"?>
<!DOCTYPE svg PUBLIC "-//W3C//DTD SVG 1.1//EN" "http://www.w3.org/Graphics/SVG/1.1/DTD/svg11.dtd">
<svg width="100%" height="100%" viewBox="0 0 29 36" version="1.1" xmlns="http://www.w3.org/2000/svg" xmlns:xlink="http://www.w3.org/1999/xlink" xml:space="preserve" xmlns:serif="http://www.serif.com/" style="fill-rule:evenodd;clip-rule:evenodd;stroke-linejoin:round;stroke-miterlimit:2;">
    <g transform="matrix(1,0,0,1,-16,-1)">
        <g>
            <g transform="matrix(1,0,0,1,0,1)">
                <path d="M43.636,17.128C43.03,15.846 41.607,13.069 40.166,10.449C38.134,6.756 34.954,1.496 34.626,1.045C34.538,0.924 34.466,0.842 34.393,0.788C34.352,0.758 34.312,0.738 34.268,0.724C34.187,0.699 34.006,0.714 33.874,0.728C33.803,0.735 33.713,0.734 33.645,0.731C32.966,0.702 31.602,0.674 30.258,0.674C28.607,0.674 26.617,0.724 26.359,0.75C26.225,0.763 26.175,0.788 26.124,0.813C26.058,0.85 25.991,0.886 25.884,1.045C25.574,1.507 22.382,6.755 20.35,10.449C18.909,13.069 17.486,15.846 16.88,17.128C16.719,17.468 16.695,17.692 16.695,17.797C16.695,17.981 16.757,18.206 16.88,18.465C17.486,19.747 18.909,22.524 20.35,25.144C22.382,28.837 25.562,34.097 25.89,34.548C25.941,34.618 25.986,34.675 26.03,34.721C26.104,34.799 26.171,34.845 26.248,34.869C26.329,34.894 26.489,34.879 26.622,34.865C26.693,34.857 26.783,34.86 26.851,34.862C27.67,34.89 28.927,34.92 30.258,34.919C31.909,34.918 33.839,34.876 34.129,34.843L34.175,34.838C34.286,34.826 34.348,34.809 34.382,34.793C34.448,34.765 34.505,34.712 34.641,34.524C34.968,34.074 38.134,28.84 40.166,25.146C41.607,22.526 43.03,19.749 43.636,18.467C43.797,18.127 43.821,17.861 43.821,17.756C43.821,17.57 43.758,17.387 43.636,17.128ZM34.257,18.49C32.897,21.539 31.932,23.439 30.5,26.193C30.417,26.352 30.35,26.455 30.256,26.457C30.161,26.457 30.096,26.352 30.013,26.192C28.581,23.439 27.615,21.538 26.256,18.489C26.14,18.228 26.058,18.036 26.058,17.791C26.061,17.553 26.144,17.358 26.258,17.103C27.618,14.054 28.583,12.154 30.015,9.4C30.098,9.241 30.163,9.138 30.257,9.136L30.26,9.136C30.355,9.136 30.421,9.24 30.505,9.4C31.937,12.153 32.903,14.054 34.262,17.103C34.378,17.364 34.458,17.556 34.458,17.801C34.456,18.047 34.371,18.235 34.257,18.49Z" style="fill:url(#_Linear1);fill-rule:nonzero;"/>
                <path d="M43.636,17.128C43.03,15.846 41.607,13.069 40.166,10.449C38.134,6.756 34.954,1.496 34.626,1.045C34.538,0.924 34.466,0.842 34.393,0.788C34.352,0.758 34.312,0.738 34.268,0.724C34.187,0.699 34.006,0.714 33.874,0.728C33.803,0.735 33.713,0.734 33.645,0.731C32.966,0.702 31.602,0.674 30.258,0.674C28.607,0.674 26.617,0.724 26.359,0.75C26.225,0.763 26.175,0.788 26.124,0.813C26.058,0.85 25.991,0.886 25.884,1.045C25.574,1.507 22.382,6.755 20.35,10.449C18.909,13.069 17.486,15.846 16.88,17.128C16.719,17.468 16.695,17.692 16.695,17.797C16.695,17.981 16.757,18.206 16.88,18.465C17.486,19.747 18.909,22.524 20.35,25.144C22.382,28.837 25.562,34.097 25.89,34.548C25.941,34.618 25.986,34.675 26.03,34.721C26.104,34.799 26.171,34.845 26.248,34.869C26.329,34.894 26.489,34.879 26.622,34.865C26.693,34.857 26.783,34.86 26.851,34.862C27.67,34.89 28.927,34.92 30.258,34.919C31.909,34.918 33.839,34.876 34.129,34.843L34.175,34.838C34.286,34.826 34.348,34.809 34.382,34.793C34.448,34.765 34.505,34.712 34.641,34.524C34.968,34.074 38.134,28.84 40.166,25.146C41.607,22.526 43.03,19.749 43.636,18.467C43.797,18.127 43.821,17.861 43.821,17.756C43.821,17.57 43.758,17.387 43.636,17.128ZM34.257,18.49C32.897,21.539 31.932,23.439 30.5,26.193C30.417,26.352 30.35,26.455 30.256,26.457C30.161,26.457 30.096,26.352 30.013,26.192C28.581,23.439 27.615,21.538 26.256,18.489C26.14,18.228 26.058,18.036 26.058,17.791C26.061,17.553 26.144,17.358 26.258,17.103C27.618,14.054 28.583,12.154 30.015,9.4C30.098,9.241 30.163,9.138 30.257,9.136L30.26,9.136C30.355,9.136 30.421,9.24 30.505,9.4C31.937,12.153 32.903,14.054 34.262,17.103C34.378,17.364 34.458,17.556 34.458,17.801C34.456,18.047 34.371,18.235 34.257,18.49Z" style="fill:url(#_Radial2);fill-rule:nonzero;"/>
                <g>
                    <path d="M25.217,18.906C25.217,18.906 24.817,18.159 24.802,17.864C24.8,17.825 24.799,17.812 24.802,17.774C24.809,17.699 24.78,17.726 24.714,17.788C24.597,17.898 24.391,18.007 23.888,18.007C23.442,18.007 19.65,18.002 17.842,18.002C17.577,18.002 17.222,17.982 17.222,18.401C17.222,18.648 17.436,19.144 17.874,20.003C20.272,24.694 22.937,29.38 25.793,33.96C25.793,33.96 26.229,34.662 26.274,34.718C26.319,34.774 26.372,34.798 26.479,34.797C26.479,34.797 28.29,31.48 29.754,27.863C28.125,24.86 26.622,21.891 25.217,18.906Z" style="fill:url(#_Linear3);fill-rule:nonzero;"/>
                    <path d="M26.478,34.797L26.48,34.797L26.478,34.797Z" style="fill:url(#_Linear4);fill-rule:nonzero;"/>
                </g>
                <path d="M43.485,17.84C43.42,17.907 43.237,18.005 42.829,18.005L37.849,18.005C35.565,18.005 35.797,17.944 35.204,19.152C34.94,19.69 34.667,20.322 34.39,20.841C32.396,25.01 27.531,33.405 26.874,34.446C26.627,34.838 26.591,34.858 26.771,34.858C26.771,34.858 28.422,34.919 30.26,34.919C33.13,34.919 34.156,34.84 34.156,34.84C35.82,32.25 39.789,25.683 42.623,19.995C43.275,18.685 43.603,18.115 43.571,17.835C43.563,17.779 43.513,17.811 43.485,17.84Z" style="fill:url(#_Linear5);fill-rule:nonzero;"/>
                <path d="M34.022,0.798C33.899,0.792 33.811,0.886 33.642,1.147C32.234,3.328 27.373,12.486 25.387,16.757C25.144,17.28 25.02,17.536 25.02,17.789L26.056,17.791C26.056,17.789 26.055,17.793 26.056,17.791C26.059,17.553 26.142,17.358 26.256,17.103C27.616,14.054 28.581,12.154 30.013,9.4C30.096,9.241 30.161,9.138 30.255,9.136L30.657,7.965C32.06,4.472 34.022,0.798 34.022,0.798Z" style="fill:url(#_Linear6);fill-rule:nonzero;"/>
                <path d="M35.488,17.801C35.488,17.548 35.37,17.298 35.127,16.781C33.755,13.867 32.32,11.026 30.66,7.965L30.257,9.137L30.26,9.137C30.355,9.137 30.421,9.241 30.505,9.401C31.937,12.154 32.903,14.055 34.262,17.104C34.378,17.365 34.458,17.557 34.458,17.802C34.458,17.805 34.458,17.799 34.458,17.802L35.488,17.802L35.488,17.801Z" style="fill:url(#_Linear7);fill-rule:nonzero;"/>
                <path d="M30.256,26.457C30.256,26.457 30.257,26.457 30.256,26.457C30.161,26.457 30.096,26.352 30.013,26.192C28.581,23.439 27.615,21.538 26.256,18.489C26.14,18.228 26.058,18.036 26.058,17.791C26.058,17.79 26.058,17.792 26.058,17.791L25.022,17.789C25.021,18.044 25.139,18.301 25.384,18.821C26.756,21.736 28.186,24.569 29.847,27.631L30.256,26.457Z" style="fill:url(#_Linear8);fill-rule:nonzero;"/>
                <path d="M30.256,26.457C30.256,26.457 30.257,26.457 30.256,26.457C30.161,26.457 30.096,26.352 30.013,26.192C28.581,23.439 27.615,21.538 26.256,18.489C26.14,18.228 26.058,18.036 26.058,17.791C26.058,17.79 26.058,17.792 26.058,17.789L25.022,17.787C25.021,18.043 25.139,18.301 25.384,18.821C26.756,21.736 28.186,24.569 29.847,27.631L30.256,26.457Z" style="fill:url(#_Linear9);fill-rule:nonzero;"/>
                <path d="M26.478,34.797C26.592,34.802 26.728,34.664 26.886,34.423C26.928,34.357 26.983,34.265 27.052,34.152C28.113,32.345 33.227,22.906 35.118,18.838C35.361,18.315 35.488,18.054 35.488,17.8L34.456,17.8C34.456,17.8 34.456,17.799 34.456,17.8C34.456,18.046 34.371,18.234 34.257,18.489C32.897,21.538 31.932,23.438 30.5,26.192C30.417,26.351 30.35,26.454 30.256,26.456L29.846,27.631C28.368,31.337 26.478,34.797 26.478,34.797Z" style="fill:url(#_Linear10);fill-rule:nonzero;"/>
                <path d="M26.029,34.721C25.985,34.675 25.94,34.618 25.889,34.548C25.562,34.098 22.381,28.838 20.349,25.144C18.908,22.524 17.485,19.747 16.879,18.465C16.756,18.206 16.694,17.981 16.694,17.797L16.025,17.797C16.025,18.024 16.074,18.319 16.274,18.753C16.746,19.777 18.068,22.386 19.763,25.469C21.613,28.835 24.973,34.432 25.348,34.944C25.502,35.155 25.634,35.282 25.76,35.362L26.029,34.721Z" style="fill:url(#_Linear11);fill-rule:nonzero;"/>
                <path d="M25.761,35.361C25.941,35.476 26.108,35.49 26.311,35.508C26.811,35.553 28.999,35.589 30.258,35.589C31.517,35.589 33.88,35.538 34.205,35.508C34.359,35.494 34.501,35.48 34.647,35.415L34.382,34.79C34.349,34.806 34.286,34.823 34.175,34.835L34.129,34.84C33.839,34.873 31.909,34.916 30.258,34.916C28.927,34.916 27.67,34.887 26.851,34.859C26.782,34.857 26.693,34.854 26.622,34.862C26.489,34.876 26.329,34.891 26.248,34.866C26.171,34.842 26.104,34.796 26.03,34.718L25.761,35.361Z" style="fill:url(#_Linear12);fill-rule:nonzero;"/>
                <path d="M44.489,17.796C44.489,17.611 44.449,17.275 44.24,16.84C43.734,15.785 42.116,12.599 40.751,10.124C38.925,6.813 35.557,1.174 35.166,0.649C34.96,0.373 34.805,0.243 34.649,0.175L34.392,0.788C34.465,0.841 34.537,0.923 34.625,1.045C34.952,1.495 38.133,6.755 40.165,10.449C41.606,13.069 43.029,15.846 43.635,17.128C43.757,17.387 43.82,17.569 43.82,17.754L44.489,17.796Z" style="fill:url(#_Linear13);fill-rule:nonzero;"/>
                <path d="M25.859,0.179L26.124,0.814C26.175,0.789 26.225,0.765 26.359,0.751C26.617,0.725 28.607,0.675 30.258,0.675C31.602,0.675 32.966,0.704 33.645,0.732C33.714,0.735 33.803,0.737 33.874,0.729C34.007,0.715 34.187,0.7 34.268,0.725C34.312,0.738 34.352,0.759 34.393,0.789L34.65,0.176C34.5,0.108 34.356,0.1 34.187,0.085C33.667,0.038 31.429,0.004 30.258,0.004C29.226,0.004 26.831,0.031 26.27,0.087C26.097,0.104 25.968,0.133 25.859,0.179Z" style="fill:url(#_Linear14);fill-rule:nonzero;"/>
                <path d="M25.859,0.179C25.648,0.269 25.522,0.422 25.326,0.677C24.939,1.182 21.574,6.861 19.764,10.125C18.49,12.423 16.466,16.404 16.274,16.841C16.082,17.278 16.026,17.57 16.026,17.797L16.695,17.797C16.695,17.692 16.719,17.468 16.88,17.128C17.486,15.846 18.909,13.069 20.35,10.449C22.382,6.756 25.574,1.508 25.884,1.045C25.991,0.886 26.058,0.85 26.124,0.813L25.859,0.179Z" style="fill:url(#_Linear15);fill-rule:nonzero;"/>
                <path d="M34.647,35.416C34.809,35.344 34.975,35.21 35.167,34.944C35.53,34.44 39.15,28.396 40.752,25.469C42.354,22.542 44.055,19.169 44.241,18.753C44.472,18.235 44.49,17.982 44.49,17.796L43.821,17.754C43.821,17.859 43.797,18.125 43.636,18.465C43.03,19.747 41.607,22.524 40.166,25.144C38.134,28.837 34.969,34.071 34.641,34.522C34.505,34.71 34.448,34.763 34.382,34.791C34.382,34.791 34.383,34.79 34.382,34.791L34.647,35.416Z" style="fill:url(#_Linear16);fill-rule:nonzero;"/>
                <path d="M33.874,0.729C33.886,0.728 33.898,0.726 33.911,0.725C33.911,0.725 33.742,0.854 33.308,0.852C32.793,0.85 31.725,0.829 30.87,0.823C29.291,0.813 27.409,0.842 26.53,0.884C26.064,0.906 26.036,0.957 25.738,1.275L25.885,1.045C25.992,0.886 26.059,0.85 26.125,0.813C26.176,0.788 26.226,0.764 26.36,0.75C26.618,0.724 28.608,0.674 30.259,0.674C31.603,0.674 32.967,0.703 33.646,0.731C33.713,0.735 33.803,0.737 33.874,0.729" style="fill:white;fill-rule:nonzero;"/>
                <path d="M34.261,17.103C34.206,16.98 33.44,15.255 32.566,13.464C31.614,11.512 30.548,9.484 30.503,9.401C30.417,9.241 30.351,9.137 30.258,9.137C30.166,9.137 30.104,9.229 30.013,9.401C29.968,9.485 28.877,11.576 27.947,13.464C27.02,15.346 26.303,17 26.256,17.103C26.16,17.312 26.056,17.554 26.056,17.791C26.056,18.029 26.146,18.234 26.254,18.489C26.306,18.611 27.077,20.347 27.953,22.141C28.906,24.093 29.97,26.112 30.011,26.192C30.091,26.35 30.161,26.457 30.254,26.457C30.347,26.457 30.415,26.353 30.498,26.193C30.541,26.11 31.601,24.092 32.553,22.142C33.427,20.353 34.198,18.62 34.255,18.49C34.374,18.219 34.454,18.041 34.454,17.801C34.456,17.561 34.378,17.367 34.261,17.103ZM34.089,18.399L34.083,18.413C34.076,18.429 33.291,20.199 32.384,22.057C31.572,23.72 30.689,25.42 30.347,26.073L30.331,26.104C30.298,26.168 30.269,26.214 30.256,26.214C30.243,26.214 30.215,26.169 30.182,26.105C30.177,26.096 30.16,26.063 30.132,26.008C29.174,24.175 28.512,22.847 28.126,22.056C27.258,20.279 26.486,18.543 26.431,18.413L26.423,18.395C26.325,18.165 26.248,17.983 26.248,17.79C26.248,17.596 26.338,17.383 26.43,17.181C26.436,17.168 26.451,17.134 26.475,17.079C27.024,15.834 27.577,14.645 28.119,13.546C29.074,11.608 30.173,9.505 30.183,9.487C30.214,9.429 30.241,9.374 30.258,9.374C30.276,9.374 30.304,9.429 30.335,9.488C30.344,9.505 31.419,11.546 32.394,13.545C33.253,15.305 34.003,16.991 34.086,17.178C34.198,17.43 34.265,17.597 34.265,17.798C34.266,17.997 34.199,18.148 34.089,18.399Z" style="fill-rule:nonzero;"/>
                <path d="M44.244,16.839C43.727,15.761 42.118,12.594 40.755,10.123C38.886,6.735 35.549,1.156 35.17,0.648C34.796,0.146 34.586,0.124 34.239,0.087L34.188,0.081C33.683,0.026 31.545,0 30.258,0C29.156,0 26.815,0.029 26.27,0.083C25.757,0.134 25.617,0.292 25.324,0.674C24.922,1.199 21.529,6.936 19.762,10.122C18.484,12.426 16.46,16.409 16.272,16.838C16.102,17.225 16.023,17.529 16.023,17.796C16.023,18.08 16.102,18.384 16.273,18.754C16.697,19.674 17.976,22.222 19.762,25.47C21.625,28.858 24.99,34.458 25.347,34.945C25.724,35.46 25.97,35.481 26.311,35.512C26.829,35.558 29.063,35.593 30.259,35.593C31.549,35.593 33.885,35.541 34.207,35.512C34.526,35.483 34.802,35.458 35.171,34.945C35.51,34.474 39.13,28.441 40.756,25.47C42.314,22.622 44.046,19.201 44.245,18.754C44.464,18.263 44.495,18.003 44.495,17.796C44.493,17.633 44.461,17.291 44.244,16.839ZM44.066,18.675C43.867,19.12 42.14,22.533 40.584,25.377C38.96,28.344 35.349,34.363 35.012,34.832C34.695,35.273 34.493,35.291 34.188,35.319C33.869,35.348 31.545,35.399 30.258,35.399C29.066,35.399 26.841,35.365 26.328,35.319C26.006,35.29 25.829,35.275 25.504,34.831C25.149,34.346 21.792,28.76 19.932,25.377C18.149,22.133 16.872,19.591 16.449,18.673C16.291,18.33 16.217,18.051 16.217,17.797C16.217,17.558 16.291,17.279 16.449,16.917C16.636,16.49 18.655,12.518 19.931,10.217C21.696,7.035 25.078,1.314 25.478,0.793C25.758,0.427 25.858,0.32 26.289,0.277C26.828,0.223 29.159,0.195 30.258,0.195C31.54,0.195 33.669,0.22 34.167,0.275L34.219,0.281C34.543,0.315 34.691,0.331 35.014,0.765C35.391,1.271 38.719,6.835 40.585,10.218C41.946,12.686 43.552,15.848 44.069,16.924C44.269,17.342 44.299,17.651 44.299,17.797C44.299,17.982 44.271,18.217 44.066,18.675Z" style="fill-rule:nonzero;"/>
            </g>
        </g>
    </g>
    <defs>
        <linearGradient id="_Linear1" x1="0" y1="0" x2="1" y2="0" gradientUnits="userSpaceOnUse" gradientTransform="matrix(2.09677e-15,-34.2429,34.2429,2.09677e-15,30.258,34.9181)"><stop offset="0" style="stop-color:rgb(229,229,229);stop-opacity:1"/><stop offset="0.69" style="stop-color:white;stop-opacity:1"/><stop offset="1" style="stop-color:rgb(145,145,145);stop-opacity:1"/></linearGradient>
        <radialGradient id="_Radial2" cx="0" cy="0" r="1" gradientUnits="userSpaceOnUse" gradientTransform="matrix(17.074,0,0,17.1374,28.488,9.5065)"><stop offset="0" style="stop-color:white;stop-opacity:1"/><stop offset="0.4" style="stop-color:white;stop-opacity:1"/><stop offset="1" style="stop-color:rgb(145,145,145);stop-opacity:1"/></radialGradient>
        <linearGradient id="_Linear3" x1="0" y1="0" x2="1" y2="0" gradientUnits="userSpaceOnUse" gradientTransform="matrix(1.03289e-15,-16.8684,16.8684,1.03289e-15,23.4872,34.7501)"><stop offset="0" style="stop-color:rgb(229,229,229);stop-opacity:1"/><stop offset="0.01" style="stop-color:rgb(229,229,229);stop-opacity:1"/><stop offset="0.34" style="stop-color:rgb(167,167,167);stop-opacity:1"/><stop offset="0.69" style="stop-color:rgb(48,48,48);stop-opacity:1"/><stop offset="0.85" style="stop-color:rgb(19,19,19);stop-opacity:1"/><stop offset="0.95" style="stop-color:rgb(9,9,9);stop-opacity:1"/><stop offset="0.96" style="stop-color:rgb(12,12,12);stop-opacity:1"/><stop offset="0.97" style="stop-color:rgb(21,21,21);stop-opacity:1"/><stop offset="0.98" style="stop-color:rgb(37,37,37);stop-opacity:1"/><stop offset="0.99" style="stop-color:rgb(60,60,60);stop-opacity:1"/><stop offset="1" style="stop-color:rgb(89,89,89);stop-opacity:1"/><stop offset="1" style="stop-color:rgb(102,102,102);stop-opacity:1"/></linearGradient>
        <linearGradient id="_Linear4" x1="0" y1="0" x2="1" y2="0" gradientUnits="userSpaceOnUse" gradientTransform="matrix(6.12323e-21,-0.0001,0.0001,6.12323e-21,26.4794,34.7969)"><stop offset="0" style="stop-color:rgb(229,229,229);stop-opacity:1"/><stop offset="0.01" style="stop-color:rgb(229,229,229);stop-opacity:1"/><stop offset="0.34" style="stop-color:rgb(167,167,167);stop-opacity:1"/><stop offset="0.69" style="stop-color:rgb(48,48,48);stop-opacity:1"/><stop offset="0.85" style="stop-color:rgb(19,19,19);stop-opacity:1"/><stop offset="0.95" style="stop-color:rgb(9,9,9);stop-opacity:1"/><stop offset="0.96" style="stop-color:rgb(12,12,12);stop-opacity:1"/><stop offset="0.97" style="stop-color:rgb(21,21,21);stop-opacity:1"/><stop offset="0.98" style="stop-color:rgb(37,37,37);stop-opacity:1"/><stop offset="0.99" style="stop-color:rgb(60,60,60);stop-opacity:1"/><stop offset="1" style="stop-color:rgb(89,89,89);stop-opacity:1"/><stop offset="1" style="stop-color:rgb(102,102,102);stop-opacity:1"/></linearGradient>
        <linearGradient id="_Linear5" x1="0" y1="0" x2="1" y2="0" gradientUnits="userSpaceOnUse" gradientTransform="matrix(1.0338e-15,-16.8832,16.8832,1.0338e-15,35.1138,34.7494)"><stop offset="0" style="stop-color:rgb(229,229,229);stop-opacity:1"/><stop offset="0.01" style="stop-color:rgb(229,229,229);stop-opacity:1"/><stop offset="0.34" style="stop-color:rgb(167,167,167);stop-opacity:1"/><stop offset="0.69" style="stop-color:rgb(48,48,48);stop-opacity:1"/><stop offset="0.85" style="stop-color:rgb(19,19,19);stop-opacity:1"/><stop offset="0.95" style="stop-color:rgb(9,9,9);stop-opacity:1"/><stop offset="0.97" style="stop-color:rgb(12,12,12);stop-opacity:1"/><stop offset="0.98" style="stop-color:rgb(21,21,21);stop-opacity:1"/><stop offset="0.98" style="stop-color:rgb(37,37,37);stop-opacity:1"/><stop offset="0.99" style="stop-color:rgb(60,60,60);stop-opacity:1"/><stop offset="1" style="stop-color:rgb(89,89,89);stop-opacity:1"/><stop offset="1" style="stop-color:rgb(102,102,102);stop-opacity:1"/></linearGradient>
        <linearGradient id="_Linear6" x1="0" y1="0" x2="1" y2="0" gradientUnits="userSpaceOnUse" gradientTransform="matrix(1.04055e-15,-16.9935,16.9935,1.04055e-15,29.5218,17.6839)"><stop offset="0" style="stop-color:rgb(48,48,48);stop-opacity:1"/><stop offset="0.01" style="stop-color:rgb(34,34,34);stop-opacity:1"/><stop offset="0.02" style="stop-color:rgb(23,23,23);stop-opacity:1"/><stop offset="0.04" style="stop-color:rgb(19,19,19);stop-opacity:1"/><stop offset="0.14" style="stop-color:rgb(14,14,14);stop-opacity:1"/><stop offset="0.25" style="stop-color:black;stop-opacity:1"/><stop offset="1" style="stop-color:black;stop-opacity:1"/></linearGradient>
        <linearGradient id="_Linear7" x1="0" y1="0" x2="1" y2="0" gradientUnits="userSpaceOnUse" gradientTransform="matrix(6.02361e-16,-9.8373,9.8373,6.02361e-16,32.8722,17.8017)"><stop offset="0" style="stop-color:rgb(116,116,116);stop-opacity:1"/><stop offset="0.14" style="stop-color:rgb(111,111,111);stop-opacity:1"/><stop offset="0.32" style="stop-color:rgb(95,95,95);stop-opacity:1"/><stop offset="0.51" style="stop-color:rgb(70,70,70);stop-opacity:1"/><stop offset="0.71" style="stop-color:rgb(36,36,36);stop-opacity:1"/><stop offset="0.8" style="stop-color:rgb(19,19,19);stop-opacity:1"/><stop offset="0.92" style="stop-color:black;stop-opacity:1"/><stop offset="1" style="stop-color:black;stop-opacity:1"/></linearGradient>
        <linearGradient id="_Linear8" x1="0" y1="0" x2="1" y2="0" gradientUnits="userSpaceOnUse" gradientTransform="matrix(6.02667e-16,-9.8423,9.8423,6.02667e-16,27.6388,27.6495)"><stop offset="0" style="stop-color:rgb(191,191,191);stop-opacity:1"/><stop offset="0.36" style="stop-color:rgb(191,191,191);stop-opacity:1"/><stop offset="0.47" style="stop-color:rgb(186,186,186);stop-opacity:1"/><stop offset="0.61" style="stop-color:rgb(172,172,172);stop-opacity:1"/><stop offset="0.75" style="stop-color:rgb(149,149,149);stop-opacity:1"/><stop offset="0.9" style="stop-color:rgb(117,117,117);stop-opacity:1"/><stop offset="0.96" style="stop-color:rgb(102,102,102);stop-opacity:1"/><stop offset="1" style="stop-color:rgb(48,48,48);stop-opacity:1"/></linearGradient>
        <linearGradient id="_Linear9" x1="0" y1="0" x2="1" y2="0" gradientUnits="userSpaceOnUse" gradientTransform="matrix(-8.953,-4.0384,4.0384,-8.953,31.5035,24.3128)"><stop offset="0" style="stop-color:rgb(241,241,241);stop-opacity:0.8"/><stop offset="0.01" style="stop-color:rgb(241,241,241);stop-opacity:0.8"/><stop offset="0.11" style="stop-color:rgb(237,237,237);stop-opacity:0"/><stop offset="1" style="stop-color:rgb(237,237,237);stop-opacity:0"/></linearGradient>
        <linearGradient id="_Linear10" x1="0" y1="0" x2="1" y2="0" gradientUnits="userSpaceOnUse" gradientTransform="matrix(1.04075e-15,-16.9967,16.9967,1.04075e-15,30.9833,34.6894)"><stop offset="0" style="stop-color:white;stop-opacity:1"/><stop offset="0.22" style="stop-color:rgb(249,249,249);stop-opacity:1"/><stop offset="0.51" style="stop-color:rgb(231,231,231);stop-opacity:1"/><stop offset="0.85" style="stop-color:rgb(203,203,203);stop-opacity:1"/><stop offset="0.97" style="stop-color:rgb(191,191,191);stop-opacity:1"/><stop offset="0.99" style="stop-color:rgb(116,116,116);stop-opacity:1"/><stop offset="1" style="stop-color:rgb(116,116,116);stop-opacity:1"/></linearGradient>
        <linearGradient id="_Linear11" x1="0" y1="0" x2="1" y2="0" gradientUnits="userSpaceOnUse" gradientTransform="matrix(1.07553e-15,-17.5647,17.5647,1.07553e-15,21.028,35.3614)"><stop offset="0" style="stop-color:rgb(102,102,102);stop-opacity:1"/><stop offset="0.2" style="stop-color:rgb(93,93,93);stop-opacity:1"/><stop offset="0.59" style="stop-color:rgb(80,80,80);stop-opacity:1"/><stop offset="0.97" style="stop-color:rgb(76,76,76);stop-opacity:1"/><stop offset="0.99" style="stop-color:rgb(117,117,117);stop-opacity:1"/><stop offset="1" style="stop-color:rgb(140,140,140);stop-opacity:1"/></linearGradient>
        <linearGradient id="_Linear12" x1="0" y1="0" x2="1" y2="0" gradientUnits="userSpaceOnUse" gradientTransform="matrix(6.7642,3.9053,-3.9053,6.7642,26.8857,33.2373)"><stop offset="0" style="stop-color:rgb(102,102,102);stop-opacity:1"/><stop offset="0.02" style="stop-color:rgb(102,102,102);stop-opacity:1"/><stop offset="0.02" style="stop-color:rgb(98,98,98);stop-opacity:1"/><stop offset="0.04" style="stop-color:rgb(69,69,69);stop-opacity:1"/><stop offset="0.06" style="stop-color:rgb(49,49,49);stop-opacity:1"/><stop offset="0.08" style="stop-color:rgb(36,36,36);stop-opacity:1"/><stop offset="0.11" style="stop-color:rgb(32,32,32);stop-opacity:1"/><stop offset="1" style="stop-color:rgb(32,32,32);stop-opacity:1"/></linearGradient>
        <linearGradient id="_Linear13" x1="0" y1="0" x2="1" y2="0" gradientUnits="userSpaceOnUse" gradientTransform="matrix(14.993,8.2084,-8.2084,14.993,32.0055,5.0051)"><stop offset="0" style="stop-color:rgb(89,89,89);stop-opacity:1"/><stop offset="1" style="stop-color:rgb(116,116,116);stop-opacity:1"/></linearGradient>
        <linearGradient id="_Linear14" x1="0" y1="0" x2="1" y2="0" gradientUnits="userSpaceOnUse" gradientTransform="matrix(-8.1213,-2.3288,2.3288,-8.1213,34.2422,1.596)"><stop offset="0" style="stop-color:rgb(89,89,89);stop-opacity:1"/><stop offset="0.01" style="stop-color:rgb(89,89,89);stop-opacity:1"/><stop offset="0.03" style="stop-color:rgb(118,118,118);stop-opacity:1"/><stop offset="0.04" style="stop-color:rgb(145,145,145);stop-opacity:1"/><stop offset="0.06" style="stop-color:rgb(161,161,161);stop-opacity:1"/><stop offset="0.07" style="stop-color:rgb(167,167,167);stop-opacity:1"/><stop offset="0.5" style="stop-color:rgb(190,190,190);stop-opacity:1"/><stop offset="1" style="stop-color:rgb(191,191,191);stop-opacity:1"/></linearGradient>
        <linearGradient id="_Linear15" x1="0" y1="0" x2="1" y2="0" gradientUnits="userSpaceOnUse" gradientTransform="matrix(14.4827,-5.5594,5.5594,14.4827,13.7538,11.876)"><stop offset="0" style="stop-color:rgb(140,140,140);stop-opacity:1"/><stop offset="0.99" style="stop-color:rgb(116,116,116);stop-opacity:1"/><stop offset="1" style="stop-color:rgb(191,191,191);stop-opacity:1"/></linearGradient>
        <linearGradient id="_Linear16" x1="0" y1="0" x2="1" y2="0" gradientUnits="userSpaceOnUse" gradientTransform="matrix(1.08145e-15,-17.6614,17.6614,1.08145e-15,39.4358,35.4156)"><stop offset="0" style="stop-color:rgb(32,32,32);stop-opacity:1"/><stop offset="0.02" style="stop-color:rgb(32,32,32);stop-opacity:1"/><stop offset="0.26" style="stop-color:rgb(44,44,44);stop-opacity:1"/><stop offset="0.62" style="stop-color:rgb(57,57,57);stop-opacity:1"/><stop offset="0.97" style="stop-color:rgb(61,61,61);stop-opacity:1"/><stop offset="0.99" style="stop-color:rgb(93,93,93);stop-opacity:1"/><stop offset="1" style="stop-color:rgb(116,116,116);stop-opacity:1"/></linearGradient>
    </defs>
</svg>
