<?xml version="1.0" encoding="UTF-8" standalone="no"?>
<!DOCTYPE svg PUBLIC "-//W3C//DTD SVG 1.1//EN" "http://www.w3.org/Graphics/SVG/1.1/DTD/svg11.dtd">
<svg width="100%" height="100%" viewBox="0 0 472 474" version="1.1" xmlns="http://www.w3.org/2000/svg" xmlns:xlink="http://www.w3.org/1999/xlink" xml:space="preserve" xmlns:serif="http://www.serif.com/" style="fill-rule:evenodd;clip-rule:evenodd;stroke-linejoin:round;stroke-miterlimit:2;">
    <g transform="matrix(1,0,0,1,-116,-14)">
        <g transform="matrix(0.866025,0.5,-0.5,0.866025,374.756,-89.7069)">
            <ellipse cx="264.993" cy="319.385" rx="52.916" ry="65.701" style="fill:rgb(38,38,38);"/>
        </g>
        <g transform="matrix(0.866025,0.5,-0.5,0.866025,195.195,-89.7069)">
            <ellipse cx="264.993" cy="319.385" rx="52.916" ry="65.701" style="fill:rgb(38,38,38);"/>
        </g>
        <g transform="matrix(0.572812,0.330713,-0.330713,0.572812,398.388,48.8007)">
            <ellipse cx="264.993" cy="319.385" rx="52.916" ry="65.701" style="fill:white;"/>
        </g>
        <g transform="matrix(0.572812,0.330713,-0.330713,0.572812,218.826,48.8007)">
            <ellipse cx="264.993" cy="319.385" rx="52.916" ry="65.701" style="fill:white;"/>
        </g>
        <path d="M208.007,345.804L141.668,345.804C136.053,345.804 130.667,343.573 126.696,339.602C122.725,335.631 120.494,330.245 120.494,324.63C120.494,324.629 120.494,324.629 120.494,324.628C120.494,292.53 133.245,261.747 155.942,239.05C178.638,216.354 209.421,203.603 241.519,203.603L259.647,203.603C259.647,203.603 262.773,198.188 267.822,189.444C309.838,116.67 402.894,91.735 475.668,133.752C475.668,133.752 475.669,133.752 475.669,133.752C489.622,141.808 494.402,159.649 486.347,173.602C477.941,188.161 472.968,203.603 479.386,203.603C506.812,203.603 533.114,214.498 552.507,233.891C571.899,253.283 582.794,279.586 582.794,307.011L582.794,307.012C582.794,317.3 578.707,327.167 571.432,334.442C564.157,341.717 554.29,345.804 544.002,345.804L492.752,345.804C510.897,313.409 504.703,275.259 478.698,260.245C452.41,245.068 415.767,259.245 396.922,291.885C386.677,309.631 383.788,329.205 387.568,345.804L313.191,345.804C331.336,313.409 325.141,275.259 299.137,260.245C272.848,245.068 236.206,259.245 217.361,291.885C207.115,309.631 204.227,329.205 208.007,345.804Z" style="fill:rgb(39,161,255);"/>
        <g transform="matrix(0.712641,0,0,0.712641,112.904,59.5974)">
            <path d="M359.544,193.044L265.743,193.044L267.822,189.444C297.031,138.851 350.909,111.38 405.479,113.483L359.544,193.044Z" style="fill:white;"/>
        </g>
        <g transform="matrix(0.712641,0,0,0.712641,112.904,59.5974)">
            <path d="M415.71,114.227C436.236,116.36 456.645,122.768 475.668,133.752C475.668,133.752 475.669,133.752 475.669,133.752C489.622,141.808 494.402,159.649 486.347,173.602C482.39,180.455 479.194,187.503 477.589,193.044L370.205,193.044L415.71,114.227Z" style="fill:white;"/>
        </g>
    </g>
</svg>
